<svg width="63" height="106" viewBox="0 0 63 106" fill="none" xmlns="http://www.w3.org/2000/svg">
<path d="M59.1509 79H44.2029L25.9249 54.284H21.7809V74.56L29.3289 76.262V79H6.83285V76.262L14.0109 74.56V27.94L6.83285 26.238V23.5H29.1069C36.9509 23.5 42.5749 24.684 45.9789 27.052C49.3829 29.42 51.0849 33.2187 51.0849 38.448C51.0849 43.6773 49.5555 47.5747 46.4969 50.14C43.4382 52.656 39.4175 53.914 34.4349 53.914L51.0849 74.634L59.1509 76.262V79ZM21.7809 26.46V51.398H30.0689C34.2622 51.398 37.3702 50.4113 39.3929 48.438C41.4649 46.4647 42.5009 43.3073 42.5009 38.966C42.5009 34.5753 41.4895 31.3933 39.4669 29.42C37.4442 27.4467 34.3115 26.46 30.0689 26.46H21.7809Z" fill="black"/>
<path d="M5.34473 98V97.334L6.94673 96.938L12.4007 84.356H13.3187L18.5027 96.938L20.0147 97.334V98H14.9027V97.334L16.4687 96.956L15.0467 93.464H9.61073L8.26073 96.956L9.88073 97.334V98H5.34473ZM9.86273 92.78H14.7947L12.2747 86.462L9.86273 92.78ZM27.9354 84.5H33.3534C35.2614 84.5 36.6294 84.806 37.4574 85.418C38.2854 86.018 38.6994 86.966 38.6994 88.262C38.6994 89.834 38.1654 90.896 37.0974 91.448C36.1494 91.928 34.8534 92.168 33.2094 92.168H31.5714V96.92L33.4074 97.334V98H27.9354V97.334L29.6814 96.92V85.58L27.9354 85.166V84.5ZM31.5714 91.448H33.5874C34.6074 91.448 35.3634 91.196 35.8554 90.692C36.3594 90.188 36.6114 89.402 36.6114 88.334C36.6114 87.266 36.3594 86.48 35.8554 85.976C35.3634 85.472 34.6074 85.22 33.5874 85.22H31.5714V91.448ZM46.2554 84.5H51.6734C53.5814 84.5 54.9494 84.806 55.7774 85.418C56.6054 86.018 57.0194 86.966 57.0194 88.262C57.0194 89.834 56.4854 90.896 55.4174 91.448C54.4694 91.928 53.1734 92.168 51.5294 92.168H49.8914V96.92L51.7274 97.334V98H46.2554V97.334L48.0014 96.92V85.58L46.2554 85.166V84.5ZM49.8914 91.448H51.9074C52.9274 91.448 53.6834 91.196 54.1754 90.692C54.6794 90.188 54.9314 89.402 54.9314 88.334C54.9314 87.266 54.6794 86.48 54.1754 85.976C53.6834 85.472 52.9274 85.22 51.9074 85.22H49.8914V91.448Z" fill="black"/>
<rect x="1.5" y="17.5" width="61" height="88" stroke="black"/>
</svg>
