<svg width="32" height="30" viewBox="0 0 32 30" fill="none" xmlns="http://www.w3.org/2000/svg">
<path d="M8.40792 20.6562C9.0273 21.4425 9.43053 21.8853 10.263 22.654L1.37882 30L0 28.4671L8.40792 20.6562Z" fill="#D9D9D9"/>
<path d="M31.6667 12.9167C31.6667 20.0503 25.8837 25.8333 18.75 25.8333C11.6164 25.8333 5.83336 20.0503 5.83336 12.9167C5.83336 5.78299 11.6164 0 18.75 0C25.8837 0 31.6667 5.78299 31.6667 12.9167Z" fill="#D9D9D9"/>
<path d="M27.8333 13C27.8333 17.9706 23.8039 22 18.8333 22C13.8627 22 9.8333 17.9706 9.8333 13C9.8333 8.02944 13.8627 4 18.8333 4C23.8039 4 27.8333 8.02944 27.8333 13Z" fill="white"/>
</svg>
